<?xml version="1.0" encoding="UTF-8" standalone="no"?>
<!-- Created with Inkscape (http://www.inkscape.org/) -->

<svg
   xmlns:dc="http://purl.org/dc/elements/1.1/"
   xmlns:cc="http://creativecommons.org/ns#"
   xmlns:rdf="http://www.w3.org/1999/02/22-rdf-syntax-ns#"
   xmlns:svg="http://www.w3.org/2000/svg"
   xmlns="http://www.w3.org/2000/svg"
   version="1.1"
   width="106.214"
   height="119"
   viewBox="0 0 106.214 119"
   id="OSGeo_x5F_logo"
   xml:space="preserve"
   style="overflow:visible"><metadata
   id="metadata242"><rdf:RDF><cc:Work
       rdf:about=""><dc:format>image/svg+xml</dc:format><dc:type
         rdf:resource="http://purl.org/dc/dcmitype/StillImage" /><dc:title></dc:title></cc:Work></rdf:RDF></metadata><defs
   id="defs240" />
<g
   transform="translate(-2.3790046,-3.407)"
   id="Text"
   style="display:none">
	<g
   id="Associate">
		<path
   d="m 125.807,106.395 c -0.74,-0.246 -1.523,-0.357 -2.105,-0.357 -2.129,0 -3.024,1.141 -3.024,2.26 0,2.531 4.503,2.6 4.503,6.207 0,2.867 -2.532,5.084 -6.116,5.084 -0.874,0 -1.859,-0.068 -2.599,-0.291 l 0.449,-2.309 c 0.649,0.271 1.546,0.473 2.33,0.473 2.15,0 3.337,-1.01 3.337,-2.555 0,-2.42 -4.457,-2.441 -4.457,-6.049 0,-2.619 1.97,-4.838 5.734,-4.838 0.807,0 1.523,0.045 2.375,0.201 l -0.427,2.174 z"
   id="path5"
   style="fill:#0054a4;display:inline" />
		<path
   d="m 130.755,119.545 c -0.492,0 -0.917,-0.047 -1.411,-0.113 l -1.008,5.398 h -2.352 l 2.15,-11.268 c 0.381,-2.062 0.74,-3.896 0.963,-5.33 h 2.33 c -0.179,0.916 -0.47,1.924 -1.143,4.029 l 0.045,0.025 c 1.121,-2.443 2.801,-4.303 4.929,-4.303 1.658,0 2.553,1.074 2.553,3.451 0.001,4.146 -2.171,8.111 -7.056,8.111 z m 3.63,-9.5 c -1.882,0 -4.078,4.076 -4.503,6.586 l -0.134,0.785 c 0.402,0.156 1.007,0.244 1.434,0.244 2.957,0 4.211,-3.225 4.211,-5.799 0,-1.279 -0.381,-1.816 -1.008,-1.816 z"
   id="path7"
   style="fill:#0054a4;display:inline" />
		<path
   d="m 143.366,119.588 c -2.935,0 -4.211,-1.455 -4.211,-3.986 0,-4.549 2.957,-7.594 6.564,-7.594 3.047,0 4.256,1.68 4.256,4.055 -0.001,4.568 -3.204,7.525 -6.609,7.525 z m 1.993,-9.543 c -2.285,0 -3.741,2.621 -3.741,5.174 0,1.459 0.583,2.309 2.084,2.309 2.105,0 3.786,-2.285 3.786,-5.197 0,-1.477 -0.65,-2.286 -2.129,-2.286 z"
   id="path9"
   style="fill:#0054a4;display:inline" />
		<path
   d="m 160.412,119.365 h -2.354 l 1.367,-7.057 c 0.314,-1.592 0.021,-2.264 -0.852,-2.264 -1.791,0 -3.986,3.986 -4.48,6.676 l -0.492,2.645 h -2.352 l 1.121,-5.824 c 0.357,-1.859 0.717,-3.811 0.961,-5.309 h 2.33 c -0.135,0.693 -0.424,1.881 -1.141,3.965 l 0.043,0.021 c 1.055,-2.195 2.711,-4.234 4.951,-4.234 2.105,0 2.777,1.5 2.352,3.764 l -1.454,7.617 z"
   id="path11"
   style="fill:#0054a4;display:inline" />
		<path
   d="m 170.646,110.066 c -0.492,-0.178 -1.053,-0.246 -1.59,-0.246 -1.322,0 -1.994,0.582 -1.994,1.434 0,1.592 3.158,2.152 3.158,4.615 0,1.859 -1.635,3.719 -4.928,3.719 -0.738,0 -1.344,-0.068 -1.904,-0.18 l 0.402,-2.059 c 0.562,0.178 1.166,0.289 1.771,0.289 1.322,0 2.195,-0.514 2.195,-1.523 0,-1.633 -3.137,-1.947 -3.137,-4.615 0,-1.947 1.547,-3.492 4.57,-3.492 0.738,0 1.344,0.066 1.904,0.178 l -0.447,1.88 z"
   id="path13"
   style="fill:#0054a4;display:inline" />
		<path
   d="m 176.56,119.588 c -2.936,0 -4.213,-1.455 -4.213,-3.986 0,-4.549 2.957,-7.594 6.564,-7.594 3.047,0 4.256,1.68 4.256,4.055 0,4.568 -3.203,7.525 -6.607,7.525 z m 1.992,-9.543 c -2.285,0 -3.74,2.621 -3.74,5.174 0,1.459 0.582,2.309 2.084,2.309 2.105,0 3.785,-2.285 3.785,-5.197 0,-1.477 -0.65,-2.286 -2.129,-2.286 z"
   id="path15"
   style="fill:#0054a4;display:inline" />
		<path
   d="m 191.857,110.314 c -1.859,-0.537 -3.943,3.182 -4.592,6.586 l -0.471,2.465 h -2.352 l 1.121,-5.824 c 0.289,-1.568 0.672,-3.652 0.961,-5.309 h 2.287 c -0.158,0.916 -0.449,2.016 -1.055,3.762 l 0.045,0.021 c 1.232,-2.553 2.51,-4.344 4.549,-4.008 l -0.493,2.307 z"
   id="path17"
   style="fill:#0054a4;display:inline" />
		<path
   d="m 199.291,114.549 c -0.895,0 -1.521,-0.717 -1.5,-1.547 0.045,-0.963 0.852,-1.701 1.725,-1.701 0.896,0 1.523,0.738 1.502,1.545 -0.024,0.986 -0.829,1.703 -1.727,1.703 z"
   id="path19"
   style="fill:#0054a4;display:inline" />
		<path
   d="m 216.74,119.365 -0.492,-3.338 h -6.004 l -1.77,3.338 h -2.531 l 8.199,-15.123 h 2.666 l 2.508,15.123 h -2.576 z m -1.545,-10.035 c -0.135,-0.762 -0.225,-1.547 -0.27,-2.332 h -0.021 c -0.314,0.762 -0.695,1.592 -1.143,2.396 l -2.531,4.684 h 4.748 l -0.783,-4.748 z"
   id="path21"
   style="fill:#0054a4;display:inline" />
		<path
   d="m 228.007,110.066 c -0.494,-0.178 -1.053,-0.246 -1.592,-0.246 -1.32,0 -1.992,0.582 -1.992,1.434 0,1.592 3.158,2.152 3.158,4.615 0,1.859 -1.637,3.719 -4.93,3.719 -0.738,0 -1.344,-0.068 -1.902,-0.18 l 0.402,-2.059 c 0.561,0.178 1.164,0.289 1.77,0.289 1.322,0 2.195,-0.514 2.195,-1.523 0,-1.633 -3.137,-1.947 -3.137,-4.615 0,-1.947 1.547,-3.492 4.57,-3.492 0.74,0 1.344,0.066 1.904,0.178 l -0.446,1.88 z"
   id="path23"
   style="fill:#0054a4;display:inline" />
		<path
   d="m 236.496,110.066 c -0.494,-0.178 -1.053,-0.246 -1.592,-0.246 -1.32,0 -1.992,0.582 -1.992,1.434 0,1.592 3.158,2.152 3.158,4.615 0,1.859 -1.635,3.719 -4.928,3.719 -0.74,0 -1.346,-0.068 -1.904,-0.18 l 0.402,-2.059 c 0.561,0.178 1.166,0.289 1.77,0.289 1.322,0 2.197,-0.514 2.197,-1.523 0,-1.633 -3.137,-1.947 -3.137,-4.615 0,-1.947 1.545,-3.492 4.57,-3.492 0.738,0 1.342,0.066 1.902,0.178 l -0.446,1.88 z"
   id="path25"
   style="fill:#0054a4;display:inline" />
		<path
   d="m 242.408,119.588 c -2.934,0 -4.211,-1.455 -4.211,-3.986 0,-4.549 2.957,-7.594 6.564,-7.594 3.045,0 4.256,1.68 4.256,4.055 0,4.568 -3.203,7.525 -6.609,7.525 z m 1.994,-9.543 c -2.285,0 -3.74,2.621 -3.74,5.174 0,1.459 0.582,2.309 2.082,2.309 2.105,0 3.787,-2.285 3.787,-5.197 0,-1.477 -0.651,-2.286 -2.129,-2.286 z"
   id="path27"
   style="fill:#0054a4;display:inline" />
		<path
   d="m 258.535,110.428 c -0.537,-0.248 -1.164,-0.404 -1.904,-0.404 -2.598,0 -3.785,2.91 -3.785,5.242 0,1.143 0.402,2.195 2.15,2.195 0.807,0 1.658,-0.18 2.33,-0.494 l -0.18,2.105 c -0.783,0.27 -1.77,0.494 -2.822,0.494 -2.936,0 -3.988,-1.545 -3.988,-3.764 0,-4.256 2.443,-7.773 6.453,-7.773 0.873,0 1.59,0.113 2.307,0.314 l -0.561,2.085 z"
   id="path29"
   style="fill:#0054a4;display:inline" />
		<path
   d="m 261.781,119.365 h -2.352 l 2.127,-11.133 h 2.354 l -2.129,11.133 z m 1.457,-12.791 c -0.852,0 -1.457,-0.672 -1.434,-1.434 0.021,-0.898 0.783,-1.57 1.635,-1.57 0.83,0 1.434,0.65 1.412,1.412 -0.023,0.92 -0.785,1.592 -1.613,1.592 z"
   id="path31"
   style="fill:#0054a4;display:inline" />
		<path
   d="m 273.921,119.365 h -2.33 c 0.203,-0.918 0.584,-2.24 1.189,-4.078 l -0.045,-0.021 c -0.854,1.68 -2.465,4.346 -4.975,4.346 -1.635,0 -2.531,-1.076 -2.531,-3.449 0,-4.146 2.174,-8.111 7.057,-8.111 1.299,0 2.553,0.113 3.697,0.336 -1.099,5.669 -1.591,8.221 -2.062,10.977 z m -2.039,-9.453 c -2.979,0 -4.232,3.248 -4.232,5.824 0,1.277 0.381,1.812 1.008,1.812 1.881,0 4.01,-4.1 4.504,-6.631 l 0.154,-0.805 c -0.402,-0.11 -0.873,-0.2 -1.434,-0.2 z"
   id="path33"
   style="fill:#0054a4;display:inline" />
		<path
   d="m 284.472,110.092 h -2.846 l -1.029,5.463 c -0.291,1.547 -0.068,1.973 0.939,1.973 0.605,0 1.053,-0.066 1.479,-0.156 l -0.178,1.949 c -0.695,0.156 -1.523,0.246 -2.174,0.246 -2.33,0 -2.979,-1.098 -2.465,-3.697 l 1.098,-5.777 h -2.105 l 0.381,-1.859 h 2.084 l 0.672,-3.539 2.441,-0.516 -0.783,4.055 h 2.867 l -0.381,1.858 z"
   id="path35"
   style="fill:#0054a4;display:inline" />
		<path
   d="m 287.808,114.615 c -0.045,0.291 -0.09,0.785 -0.09,1.121 0,1.523 0.561,1.924 2.24,1.924 1.053,0 2.195,-0.244 3.182,-0.646 v 1.881 c -1.143,0.426 -2.51,0.693 -3.965,0.693 -2.689,0 -3.854,-1.188 -3.854,-3.697 0,-4.455 2.598,-7.883 6.182,-7.883 2.555,0 3.43,1.297 3.43,2.621 0,2.508 -2.533,3.828 -7.125,3.986 z m 3.428,-4.816 c -1.613,0 -2.688,1.455 -3.137,3.16 3.047,-0.113 4.48,-0.74 4.48,-2.018 10e-4,-0.738 -0.513,-1.142 -1.343,-1.142 z"
   id="path37"
   style="fill:#0054a4;display:inline" />
	</g>
	<g
   id="Supporting">
		<path
   d="m 112.149,106.585 c -0.741,-0.247 -1.527,-0.358 -2.111,-0.358 -2.133,0 -3.031,1.144 -3.031,2.268 0,2.538 4.513,2.604 4.513,6.22 0,2.875 -2.538,5.1 -6.131,5.1 -0.875,0 -1.864,-0.068 -2.604,-0.294 l 0.449,-2.312 c 0.652,0.269 1.55,0.47 2.336,0.47 2.156,0 3.346,-1.01 3.346,-2.559 0,-2.427 -4.469,-2.448 -4.469,-6.064 0,-2.627 1.977,-4.85 5.749,-4.85 0.808,0 1.527,0.044 2.38,0.201 l -0.427,2.178 z"
   id="path40"
   style="fill:#0054a4;display:inline" />
		<path
   d="m 116.885,119.768 c -0.494,0 -0.92,-0.046 -1.415,-0.112 l -1.011,5.412 h -2.358 l 2.156,-11.296 c 0.382,-2.065 0.742,-3.907 0.966,-5.345 h 2.335 c -0.18,0.921 -0.472,1.932 -1.146,4.043 l 0.045,0.021 c 1.123,-2.448 2.808,-4.312 4.94,-4.312 1.662,0 2.561,1.078 2.561,3.459 0.001,4.154 -2.177,8.13 -7.073,8.13 z m 3.638,-9.523 c -1.886,0 -4.086,4.088 -4.513,6.602 l -0.135,0.788 c 0.404,0.157 1.01,0.247 1.437,0.247 2.963,0 4.221,-3.235 4.221,-5.817 0.001,-1.28 -0.381,-1.82 -1.01,-1.82 z"
   id="path42"
   style="fill:#0054a4;display:inline" />
		<path
   d="m 129.302,119.813 c -2.942,0 -4.222,-1.462 -4.222,-3.999 0,-4.559 2.964,-7.613 6.58,-7.613 3.054,0 4.267,1.685 4.267,4.064 0,4.582 -3.212,7.548 -6.625,7.548 z m 1.998,-9.568 c -2.291,0 -3.75,2.627 -3.75,5.188 0,1.459 0.583,2.312 2.088,2.312 2.111,0 3.795,-2.291 3.795,-5.211 0.001,-1.48 -0.651,-2.289 -2.133,-2.289 z"
   id="path44"
   style="fill:#0054a4;display:inline" />
		<path
   d="m 146.165,119.588 h -2.358 l 1.372,-7.074 c 0.313,-1.595 0.022,-2.269 -0.853,-2.269 -1.798,0 -3.999,3.998 -4.493,6.693 l -0.494,2.649 h -2.358 l 1.123,-5.839 c 0.359,-1.863 0.719,-3.817 0.965,-5.322 h 2.336 c -0.136,0.696 -0.427,1.886 -1.145,3.975 l 0.044,0.022 c 1.057,-2.201 2.717,-4.244 4.964,-4.244 2.111,0 2.785,1.505 2.358,3.773 l -1.461,7.636 z"
   id="path46"
   style="fill:#0054a4;display:inline" />
		<path
   d="m 156.202,110.269 c -0.494,-0.179 -1.055,-0.247 -1.595,-0.247 -1.323,0 -1.997,0.584 -1.997,1.438 0,1.595 3.165,2.154 3.165,4.624 0,1.864 -1.639,3.73 -4.939,3.73 -0.741,0 -1.348,-0.068 -1.91,-0.182 l 0.405,-2.065 c 0.562,0.18 1.168,0.291 1.773,0.291 1.326,0 2.201,-0.517 2.201,-1.526 0,-1.639 -3.144,-1.954 -3.144,-4.625 0,-1.954 1.549,-3.505 4.581,-3.505 0.741,0 1.348,0.068 1.909,0.18 l -0.449,1.887 z"
   id="path48"
   style="fill:#0054a4;display:inline" />
		<path
   d="m 161.905,119.813 c -2.942,0 -4.222,-1.462 -4.222,-3.999 0,-4.559 2.964,-7.613 6.58,-7.613 3.054,0 4.268,1.685 4.268,4.064 0,4.582 -3.212,7.548 -6.626,7.548 z m 1.999,-9.568 c -2.29,0 -3.751,2.627 -3.751,5.188 0,1.459 0.584,2.312 2.089,2.312 2.11,0 3.795,-2.291 3.795,-5.211 0,-1.48 -0.652,-2.289 -2.133,-2.289 z"
   id="path50"
   style="fill:#0054a4;display:inline" />
		<path
   d="m 177.016,110.516 c -1.863,-0.54 -3.952,3.188 -4.604,6.603 l -0.471,2.47 h -2.357 l 1.122,-5.839 c 0.291,-1.572 0.674,-3.659 0.965,-5.322 h 2.292 c -0.157,0.921 -0.45,2.021 -1.057,3.771 l 0.046,0.024 c 1.234,-2.562 2.514,-4.357 4.56,-4.021 l -0.496,2.314 z"
   id="path52"
   style="fill:#0054a4;display:inline" />
		<path
   d="m 184.019,114.76 c -0.896,0 -1.526,-0.72 -1.503,-1.551 0.044,-0.965 0.854,-1.706 1.729,-1.706 0.898,0 1.526,0.741 1.505,1.551 -0.023,0.986 -0.832,1.706 -1.731,1.706 z"
   id="path54"
   style="fill:#0054a4;display:inline" />
		<path
   d="m 200.883,106.585 c -0.739,-0.247 -1.527,-0.358 -2.111,-0.358 -2.133,0 -3.031,1.144 -3.031,2.268 0,2.538 4.515,2.604 4.515,6.22 0,2.875 -2.538,5.1 -6.132,5.1 -0.875,0 -1.863,-0.068 -2.604,-0.294 l 0.449,-2.312 c 0.651,0.269 1.549,0.47 2.334,0.47 2.156,0 3.347,-1.01 3.347,-2.559 0,-2.427 -4.469,-2.448 -4.469,-6.064 0,-2.627 1.978,-4.85 5.749,-4.85 0.809,0 1.526,0.044 2.38,0.201 l -0.427,2.178 z"
   id="path56"
   style="fill:#0054a4;display:inline" />
		<path
   d="m 212.064,114.266 c -0.358,1.886 -0.718,3.863 -0.986,5.322 h -2.314 c 0.136,-0.695 0.427,-1.886 1.124,-3.975 l -0.046,-0.022 c -1.032,2.201 -2.695,4.244 -4.939,4.244 -2.111,0 -2.785,-1.505 -2.358,-3.773 l 1.459,-7.635 h 2.337 l -1.348,7.074 c -0.315,1.593 -0.024,2.267 0.854,2.267 1.796,0 3.996,-3.996 4.49,-6.691 l 0.495,-2.649 h 2.357 l -1.125,5.838 z"
   id="path58"
   style="fill:#0054a4;display:inline" />
		<path
   d="m 217.993,119.768 c -0.494,0 -0.921,-0.046 -1.416,-0.112 l -1.01,5.412 h -2.358 l 2.156,-11.296 c 0.381,-2.065 0.74,-3.907 0.965,-5.345 h 2.337 c -0.182,0.921 -0.473,1.932 -1.146,4.043 l 0.046,0.021 c 1.122,-2.448 2.807,-4.312 4.939,-4.312 1.662,0 2.56,1.078 2.56,3.459 -0.001,4.154 -2.178,8.13 -7.073,8.13 z m 3.637,-9.523 c -1.888,0 -4.089,4.088 -4.515,6.602 l -0.134,0.788 c 0.402,0.157 1.011,0.247 1.438,0.247 2.964,0 4.222,-3.235 4.222,-5.817 0,-1.28 -0.383,-1.82 -1.011,-1.82 z"
   id="path60"
   style="fill:#0054a4;display:inline" />
		<path
   d="m 229.893,119.768 c -0.494,0 -0.921,-0.046 -1.415,-0.112 l -1.011,5.412 h -2.358 l 2.157,-11.296 c 0.38,-2.065 0.739,-3.907 0.964,-5.345 h 2.337 c -0.182,0.921 -0.473,1.932 -1.146,4.043 l 0.046,0.021 c 1.122,-2.448 2.807,-4.312 4.939,-4.312 1.663,0 2.56,1.078 2.56,3.459 -0.001,4.154 -2.177,8.13 -7.073,8.13 z m 3.638,-9.523 c -1.888,0 -4.088,4.088 -4.515,6.602 l -0.134,0.788 c 0.402,0.157 1.011,0.247 1.438,0.247 2.964,0 4.222,-3.235 4.222,-5.817 0,-1.28 -0.383,-1.82 -1.011,-1.82 z"
   id="path62"
   style="fill:#0054a4;display:inline" />
		<path
   d="m 242.308,119.813 c -2.942,0 -4.223,-1.462 -4.223,-3.999 0,-4.559 2.965,-7.613 6.58,-7.613 3.054,0 4.269,1.685 4.269,4.064 0,4.582 -3.212,7.548 -6.626,7.548 z m 1.999,-9.568 c -2.29,0 -3.752,2.627 -3.752,5.188 0,1.459 0.584,2.312 2.09,2.312 2.11,0 3.795,-2.291 3.795,-5.211 0,-1.48 -0.651,-2.289 -2.133,-2.289 z"
   id="path64"
   style="fill:#0054a4;display:inline" />
		<path
   d="m 257.419,110.516 c -1.863,-0.54 -3.953,3.188 -4.603,6.603 l -0.473,2.47 h -2.358 l 1.125,-5.839 c 0.291,-1.572 0.671,-3.659 0.965,-5.322 h 2.29 c -0.157,0.921 -0.448,2.021 -1.055,3.771 l 0.044,0.024 c 1.236,-2.562 2.516,-4.357 4.559,-4.021 l -0.494,2.314 z"
   id="path66"
   style="fill:#0054a4;display:inline" />
		<path
   d="m 265.433,110.291 h -2.853 l -1.033,5.479 c -0.293,1.549 -0.067,1.976 0.943,1.976 0.605,0 1.055,-0.068 1.481,-0.157 l -0.18,1.953 c -0.696,0.157 -1.527,0.247 -2.177,0.247 -2.336,0 -2.988,-1.101 -2.472,-3.706 l 1.101,-5.792 h -2.111 l 0.383,-1.864 h 2.089 l 0.674,-3.548 2.445,-0.517 -0.785,4.064 h 2.875 l -0.38,1.865 z"
   id="path68"
   style="fill:#0054a4;display:inline" />
		<path
   d="m 268.351,119.588 h -2.358 l 2.133,-11.161 h 2.358 l -2.133,11.161 z m 1.459,-12.823 c -0.853,0 -1.459,-0.674 -1.437,-1.438 0.021,-0.897 0.785,-1.571 1.639,-1.571 0.831,0 1.437,0.65 1.415,1.414 -0.022,0.921 -0.785,1.595 -1.617,1.595 z"
   id="path70"
   style="fill:#0054a4;display:inline" />
		<path
   d="m 280.746,119.588 h -2.357 l 1.369,-7.074 c 0.315,-1.595 0.021,-2.269 -0.854,-2.269 -1.796,0 -3.996,3.998 -4.491,6.693 l -0.494,2.649 h -2.357 l 1.124,-5.839 c 0.358,-1.863 0.718,-3.817 0.965,-5.322 h 2.336 c -0.136,0.696 -0.427,1.886 -1.146,3.975 l 0.046,0.022 c 1.055,-2.201 2.717,-4.244 4.962,-4.244 2.111,0 2.784,1.505 2.358,3.773 l -1.461,7.636 z"
   id="path72"
   style="fill:#0054a4;display:inline" />
		<path
   d="m 292.443,120.463 c -0.538,2.853 -2.336,4.806 -6.647,4.806 -1.258,0 -2.269,-0.179 -3.122,-0.448 l 0.562,-2.269 c 0.875,0.427 1.999,0.652 3.01,0.652 2.223,0 3.524,-0.854 3.975,-3.146 0.291,-1.527 0.561,-2.381 1.256,-4.491 h -0.044 c -0.809,1.595 -2.426,4.268 -4.939,4.268 -1.641,0 -2.537,-1.078 -2.537,-3.458 0,-4.154 2.2,-8.13 7.072,-8.13 1.304,0 2.56,0.112 3.706,0.337 l -2.292,11.879 z m -1.819,-10.352 c -2.986,0 -4.244,3.255 -4.244,5.839 0,1.279 0.383,1.817 1.011,1.817 1.886,0 4.021,-4.108 4.515,-6.646 l 0.155,-0.81 c -0.403,-0.11 -0.876,-0.2 -1.437,-0.2 z"
   id="path74"
   style="fill:#0054a4;display:inline" />
	</g>
	<g
   id="Sustaining">
		<path
   d="m 114.405,106.354 c -0.741,-0.246 -1.525,-0.357 -2.108,-0.357 -2.131,0 -3.028,1.143 -3.028,2.265 0,2.535 4.507,2.601 4.507,6.212 0,2.871 -2.535,5.093 -6.122,5.093 -0.875,0 -1.861,-0.068 -2.602,-0.293 l 0.448,-2.31 c 0.651,0.27 1.549,0.47 2.333,0.47 2.153,0 3.342,-1.009 3.342,-2.556 0,-2.423 -4.462,-2.445 -4.462,-6.057 0,-2.624 1.973,-4.844 5.741,-4.844 0.807,0 1.525,0.044 2.377,0.201 l -0.426,2.176 z"
   id="path77"
   style="fill:#0054a4;display:inline" />
		<path
   d="m 119.359,119.521 c -0.493,0 -0.918,-0.046 -1.412,-0.111 l -1.01,5.405 h -2.355 l 2.153,-11.282 c 0.381,-2.062 0.739,-3.902 0.964,-5.338 h 2.333 c -0.179,0.92 -0.471,1.93 -1.144,4.038 l 0.045,0.021 c 1.122,-2.445 2.804,-4.307 4.934,-4.307 1.661,0 2.557,1.077 2.557,3.454 0,4.15 -2.174,8.12 -7.065,8.12 z m 3.634,-9.511 c -1.885,0 -4.083,4.084 -4.509,6.594 l -0.133,0.787 c 0.403,0.157 1.008,0.246 1.436,0.246 2.96,0 4.217,-3.23 4.217,-5.809 -0.001,-1.278 -0.383,-1.818 -1.011,-1.818 z"
   id="path79"
   style="fill:#0054a4;display:inline" />
		<path
   d="m 131.984,119.566 c -2.938,0 -4.216,-1.459 -4.216,-3.994 0,-4.553 2.96,-7.603 6.572,-7.603 3.05,0 4.262,1.682 4.262,4.06 0,4.575 -3.207,7.537 -6.618,7.537 z m 1.997,-9.556 c -2.288,0 -3.747,2.624 -3.747,5.183 0,1.457 0.583,2.31 2.086,2.31 2.108,0 3.791,-2.288 3.791,-5.204 0,-1.481 -0.651,-2.289 -2.13,-2.289 z"
   id="path81"
   style="fill:#0054a4;display:inline" />
		<path
   d="m 149.05,119.341 h -2.356 l 1.37,-7.065 c 0.313,-1.593 0.022,-2.266 -0.852,-2.266 -1.795,0 -3.994,3.994 -4.487,6.686 l -0.492,2.646 h -2.355 l 1.121,-5.831 c 0.358,-1.861 0.719,-3.812 0.964,-5.315 h 2.333 c -0.135,0.695 -0.426,1.884 -1.143,3.97 l 0.043,0.022 c 1.055,-2.198 2.714,-4.239 4.958,-4.239 2.107,0 2.781,1.504 2.355,3.77 l -1.459,7.622 z"
   id="path83"
   style="fill:#0054a4;display:inline" />
		<path
   d="m 159.298,110.034 c -0.494,-0.18 -1.055,-0.247 -1.592,-0.247 -1.324,0 -1.998,0.583 -1.998,1.436 0,1.593 3.164,2.152 3.164,4.619 0,1.861 -1.639,3.725 -4.936,3.725 -0.738,0 -1.346,-0.068 -1.904,-0.182 l 0.4,-2.062 c 0.562,0.18 1.168,0.291 1.773,0.291 1.324,0 2.197,-0.516 2.197,-1.525 0,-1.636 -3.139,-1.951 -3.139,-4.618 0,-1.951 1.549,-3.5 4.574,-3.5 0.74,0 1.346,0.067 1.906,0.179 l -0.445,1.884 z"
   id="path85"
   style="fill:#0054a4;display:inline" />
		<path
   d="m 165.216,119.566 c -2.938,0 -4.215,-1.459 -4.215,-3.994 0,-4.553 2.959,-7.603 6.57,-7.603 3.051,0 4.264,1.682 4.264,4.06 0,4.575 -3.207,7.537 -6.619,7.537 z m 1.998,-9.556 c -2.287,0 -3.746,2.624 -3.746,5.183 0,1.457 0.582,2.31 2.086,2.31 2.107,0 3.791,-2.288 3.791,-5.204 0,-1.481 -0.652,-2.289 -2.131,-2.289 z"
   id="path87"
   style="fill:#0054a4;display:inline" />
		<path
   d="m 180.535,110.281 c -1.861,-0.54 -3.947,3.183 -4.6,6.594 l -0.469,2.466 h -2.355 l 1.121,-5.831 c 0.291,-1.57 0.672,-3.655 0.963,-5.315 h 2.291 c -0.158,0.92 -0.451,2.019 -1.057,3.767 l 0.047,0.024 c 1.232,-2.559 2.51,-4.353 4.553,-4.016 l -0.494,2.311 z"
   id="path89"
   style="fill:#0054a4;display:inline" />
		<path
   d="m 187.976,114.52 c -0.895,0 -1.523,-0.719 -1.5,-1.549 0.043,-0.964 0.852,-1.704 1.725,-1.704 0.898,0 1.525,0.74 1.504,1.549 -0.022,0.985 -0.83,1.704 -1.729,1.704 z"
   id="path91"
   style="fill:#0054a4;display:inline" />
		<path
   d="m 205.267,106.354 c -0.738,-0.246 -1.525,-0.357 -2.107,-0.357 -2.131,0 -3.029,1.143 -3.029,2.265 0,2.535 4.51,2.601 4.51,6.212 0,2.871 -2.535,5.093 -6.123,5.093 -0.875,0 -1.863,-0.068 -2.602,-0.293 l 0.449,-2.31 c 0.65,0.27 1.547,0.47 2.33,0.47 2.154,0 3.344,-1.009 3.344,-2.556 0,-2.423 -4.465,-2.445 -4.465,-6.057 0,-2.624 1.977,-4.844 5.742,-4.844 0.809,0 1.525,0.044 2.377,0.201 l -0.426,2.176 z"
   id="path93"
   style="fill:#0054a4;display:inline" />
		<path
   d="m 216.66,114.025 c -0.359,1.884 -0.717,3.858 -0.986,5.315 h -2.311 c 0.135,-0.694 0.426,-1.883 1.121,-3.97 l -0.045,-0.021 c -1.031,2.198 -2.691,4.238 -4.934,4.238 -2.107,0 -2.781,-1.503 -2.355,-3.769 l 1.457,-7.625 h 2.334 l -1.346,7.065 c -0.314,1.591 -0.023,2.264 0.852,2.264 1.795,0 3.992,-3.991 4.486,-6.684 l 0.494,-2.646 h 2.354 l -1.121,5.833 z"
   id="path95"
   style="fill:#0054a4;display:inline" />
		<path
   d="m 225.898,110.034 c -0.494,-0.18 -1.055,-0.247 -1.592,-0.247 -1.324,0 -1.998,0.583 -1.998,1.436 0,1.593 3.164,2.152 3.164,4.619 0,1.861 -1.639,3.725 -4.936,3.725 -0.738,0 -1.346,-0.068 -1.904,-0.182 l 0.402,-2.062 c 0.561,0.18 1.166,0.291 1.771,0.291 1.324,0 2.197,-0.516 2.197,-1.525 0,-1.636 -3.139,-1.951 -3.139,-4.618 0,-1.951 1.549,-3.5 4.574,-3.5 0.74,0 1.346,0.067 1.908,0.179 l -0.447,1.884 z"
   id="path97"
   style="fill:#0054a4;display:inline" />
		<path
   d="m 234.98,110.056 h -2.848 l -1.031,5.473 c -0.293,1.548 -0.068,1.974 0.941,1.974 0.605,0 1.053,-0.068 1.479,-0.157 l -0.18,1.951 c -0.693,0.157 -1.523,0.246 -2.174,0.246 -2.332,0 -2.984,-1.099 -2.469,-3.7 l 1.1,-5.786 h -2.107 l 0.381,-1.861 h 2.088 l 0.672,-3.544 2.443,-0.516 -0.785,4.06 h 2.871 l -0.381,1.86 z"
   id="path99"
   style="fill:#0054a4;display:inline" />
		<path
   d="m 244.49,119.341 h -2.334 c 0.203,-0.919 0.584,-2.243 1.189,-4.081 l -0.045,-0.023 c -0.852,1.682 -2.467,4.352 -4.979,4.352 -1.637,0 -2.535,-1.077 -2.535,-3.454 0,-4.148 2.176,-8.118 7.066,-8.118 1.299,0 2.555,0.111 3.701,0.336 -1.1,5.672 -1.593,8.229 -2.063,10.988 z m -2.041,-9.464 c -2.982,0 -4.238,3.251 -4.238,5.831 0,1.278 0.379,1.815 1.008,1.815 1.885,0 4.014,-4.103 4.508,-6.638 l 0.158,-0.808 c -0.405,-0.11 -0.876,-0.2 -1.436,-0.2 z"
   id="path101"
   style="fill:#0054a4;display:inline" />
		<path
   d="m 250.228,119.341 h -2.355 l 2.131,-11.146 h 2.355 l -2.131,11.146 z m 1.457,-12.807 c -0.852,0 -1.457,-0.673 -1.436,-1.436 0.025,-0.896 0.787,-1.568 1.639,-1.568 0.83,0 1.436,0.648 1.414,1.411 -0.023,0.92 -0.787,1.593 -1.617,1.593 z"
   id="path103"
   style="fill:#0054a4;display:inline" />
		<path
   d="m 262.833,119.341 h -2.355 l 1.367,-7.065 c 0.314,-1.593 0.021,-2.266 -0.852,-2.266 -1.795,0 -3.992,3.994 -4.486,6.686 l -0.494,2.646 h -2.354 l 1.121,-5.831 c 0.359,-1.861 0.717,-3.812 0.965,-5.315 h 2.332 c -0.135,0.695 -0.426,1.884 -1.145,3.97 l 0.047,0.022 c 1.053,-2.198 2.713,-4.239 4.955,-4.239 2.107,0 2.781,1.504 2.355,3.77 l -1.456,7.622 z"
   id="path105"
   style="fill:#0054a4;display:inline" />
		<path
   d="m 268.593,119.341 h -2.354 l 2.129,-11.146 h 2.355 l -2.13,11.146 z m 1.459,-12.807 c -0.854,0 -1.459,-0.673 -1.436,-1.436 0.023,-0.896 0.785,-1.568 1.639,-1.568 0.83,0 1.434,0.648 1.412,1.411 -0.023,0.92 -0.785,1.593 -1.615,1.593 z"
   id="path107"
   style="fill:#0054a4;display:inline" />
		<path
   d="m 281.199,119.341 h -2.355 l 1.367,-7.065 c 0.314,-1.593 0.021,-2.266 -0.852,-2.266 -1.795,0 -3.992,3.994 -4.486,6.686 l -0.492,2.646 h -2.355 l 1.123,-5.831 c 0.357,-1.861 0.717,-3.812 0.963,-5.315 h 2.334 c -0.137,0.695 -0.428,1.884 -1.146,3.97 l 0.047,0.022 c 1.053,-2.198 2.713,-4.239 4.955,-4.239 2.107,0 2.781,1.504 2.355,3.77 l -1.458,7.622 z"
   id="path109"
   style="fill:#0054a4;display:inline" />
		<path
   d="m 293.105,120.215 c -0.537,2.85 -2.332,4.801 -6.639,4.801 -1.256,0 -2.266,-0.18 -3.117,-0.448 l 0.561,-2.266 c 0.873,0.426 1.996,0.651 3.006,0.651 2.221,0 3.52,-0.853 3.971,-3.142 0.291,-1.525 0.559,-2.378 1.254,-4.485 h -0.045 c -0.807,1.592 -2.422,4.262 -4.932,4.262 -1.639,0 -2.535,-1.077 -2.535,-3.454 0,-4.148 2.197,-8.118 7.064,-8.118 1.301,0 2.555,0.111 3.699,0.336 l -2.287,11.863 z m -1.816,-10.338 c -2.982,0 -4.24,3.251 -4.24,5.831 0,1.278 0.383,1.815 1.01,1.815 1.885,0 4.016,-4.103 4.51,-6.638 l 0.156,-0.808 c -0.403,-0.11 -0.876,-0.2 -1.436,-0.2 z"
   id="path111"
   style="fill:#0054a4;display:inline" />
	</g>
	<g
   id="Incubation">
		<path
   d="m 105.248,114.293 c -0.313,0 -0.761,-0.021 -1.141,-0.067 l -1.053,5.597 h -2.372 l 2.865,-15.109 c 1.165,-0.045 2.418,-0.09 3.828,-0.09 2.955,0 4.61,1.388 4.61,3.738 0,3.402 -3.088,5.931 -6.737,5.931 z m 1.702,-7.678 c -0.605,0 -0.984,0 -1.388,0.045 l -1.052,5.508 c 0.313,0.066 0.649,0.089 1.03,0.089 2.126,0 3.939,-1.545 3.939,-3.56 0,-1.254 -0.671,-2.082 -2.529,-2.082 z"
   id="path114"
   style="fill:#0054a4;display:inline" />
		<path
   d="m 119.617,110.778 c -1.857,-0.536 -3.94,3.179 -4.59,6.581 l -0.469,2.463 h -2.351 l 1.119,-5.82 c 0.291,-1.566 0.672,-3.648 0.963,-5.305 h 2.283 c -0.156,0.917 -0.448,2.015 -1.052,3.76 l 0.044,0.022 c 1.231,-2.552 2.506,-4.342 4.545,-4.006 l -0.492,2.305 z"
   id="path116"
   style="fill:#0054a4;display:inline" />
		<path
   d="m 124.021,120.045 c -2.933,0 -4.208,-1.454 -4.208,-3.983 0,-4.544 2.955,-7.588 6.559,-7.588 3.044,0 4.254,1.679 4.254,4.052 -0.001,4.565 -3.202,7.519 -6.605,7.519 z m 1.992,-9.535 c -2.283,0 -3.739,2.619 -3.739,5.17 0,1.457 0.582,2.307 2.083,2.307 2.104,0 3.783,-2.282 3.783,-5.193 -10e-4,-1.478 -0.65,-2.284 -2.127,-2.284 z"
   id="path118"
   style="fill:#0054a4;display:inline" />
		<path
   d="m 134.114,121.008 c -0.561,2.865 -1.858,4.455 -4.812,4.455 -0.537,0 -1.053,-0.09 -1.479,-0.201 l 0.493,-2.061 c 0.403,0.158 0.874,0.247 1.231,0.247 1.365,0 1.88,-0.716 2.283,-2.799 l 2.305,-11.952 h 2.329 l -2.35,12.311 z m 1.633,-13.967 c -0.826,0 -1.432,-0.672 -1.409,-1.433 0.022,-0.896 0.783,-1.567 1.633,-1.567 0.829,0 1.433,0.649 1.411,1.41 -0.021,0.918 -0.782,1.59 -1.635,1.59 z"
   id="path120"
   style="fill:#0054a4;display:inline" />
		<path
   d="m 140.292,115.076 c -0.046,0.292 -0.091,0.783 -0.091,1.119 0,1.522 0.56,1.925 2.239,1.925 1.053,0 2.193,-0.245 3.179,-0.649 v 1.881 c -1.142,0.426 -2.507,0.693 -3.962,0.693 -2.686,0 -3.851,-1.186 -3.851,-3.693 0,-4.453 2.597,-7.878 6.177,-7.878 2.553,0 3.426,1.298 3.426,2.618 0,2.508 -2.53,3.827 -7.117,3.984 z m 3.423,-4.812 c -1.611,0 -2.687,1.455 -3.133,3.156 3.044,-0.112 4.477,-0.738 4.477,-2.014 -0.001,-0.739 -0.516,-1.142 -1.344,-1.142 z"
   id="path122"
   style="fill:#0054a4;display:inline" />
		<path
   d="m 156.72,110.891 c -0.537,-0.246 -1.166,-0.402 -1.904,-0.402 -2.596,0 -3.781,2.909 -3.781,5.238 0,1.141 0.402,2.193 2.148,2.193 0.807,0 1.656,-0.18 2.328,-0.493 l -0.18,2.104 c -0.783,0.268 -1.768,0.492 -2.82,0.492 -2.934,0 -3.984,-1.545 -3.984,-3.762 0,-4.252 2.439,-7.766 6.445,-7.766 0.875,0 1.59,0.111 2.307,0.313 l -0.559,2.083 z"
   id="path124"
   style="fill:#0054a4;display:inline" />
		<path
   d="m 165.242,110.555 h -2.844 l -1.029,5.461 c -0.291,1.547 -0.068,1.971 0.939,1.971 0.605,0 1.051,-0.066 1.477,-0.156 l -0.178,1.947 c -0.693,0.156 -1.523,0.246 -2.17,0.246 -2.33,0 -2.979,-1.097 -2.465,-3.693 l 1.098,-5.775 h -2.105 l 0.383,-1.857 h 2.082 l 0.672,-3.537 2.438,-0.514 -0.783,4.051 h 2.865 l -0.38,1.856 z"
   id="path126"
   style="fill:#0054a4;display:inline" />
		<path
   d="m 173.585,119.822 h -2.352 l 2.127,-11.125 h 2.35 l -2.125,11.125 z m 1.454,-12.781 c -0.85,0 -1.453,-0.672 -1.432,-1.433 0.023,-0.896 0.785,-1.567 1.635,-1.567 0.828,0 1.432,0.649 1.41,1.41 -0.024,0.918 -0.785,1.59 -1.613,1.59 z"
   id="path128"
   style="fill:#0054a4;display:inline" />
		<path
   d="m 186.164,119.822 h -2.35 l 1.367,-7.051 c 0.311,-1.59 0.021,-2.262 -0.852,-2.262 -1.793,0 -3.986,3.984 -4.479,6.67 l -0.49,2.643 h -2.352 l 1.119,-5.82 c 0.357,-1.857 0.717,-3.806 0.961,-5.305 h 2.33 c -0.135,0.694 -0.426,1.881 -1.141,3.962 l 0.043,0.022 c 1.053,-2.193 2.709,-4.23 4.947,-4.23 2.105,0 2.775,1.498 2.352,3.76 l -1.455,7.611 z"
   id="path130"
   style="fill:#0054a4;display:inline" />
		<path
   d="m 196.859,119.822 h -2.395 l 2.865,-15.109 h 2.395 l -2.865,15.109 z"
   id="path132"
   style="fill:#0054a4;display:inline" />
		<path
   d="m 209.417,119.822 h -2.352 l 1.365,-7.051 c 0.314,-1.59 0.021,-2.262 -0.85,-2.262 -1.791,0 -3.984,3.984 -4.477,6.67 l -0.494,2.643 h -2.35 l 1.121,-5.82 c 0.357,-1.857 0.715,-3.806 0.961,-5.305 h 2.328 c -0.135,0.694 -0.424,1.881 -1.143,3.962 l 0.047,0.022 c 1.051,-2.193 2.707,-4.23 4.945,-4.23 2.104,0 2.775,1.498 2.35,3.76 l -1.451,7.611 z"
   id="path134"
   style="fill:#0054a4;display:inline" />
		<path
   d="m 221.054,110.891 c -0.537,-0.246 -1.164,-0.402 -1.904,-0.402 -2.594,0 -3.779,2.909 -3.779,5.238 0,1.141 0.4,2.193 2.146,2.193 0.807,0 1.658,-0.18 2.33,-0.493 l -0.18,2.104 c -0.785,0.268 -1.768,0.492 -2.822,0.492 -2.932,0 -3.982,-1.545 -3.982,-3.762 0,-4.252 2.439,-7.766 6.445,-7.766 0.873,0 1.59,0.111 2.307,0.313 l -0.561,2.083 z"
   id="path136"
   style="fill:#0054a4;display:inline" />
		<path
   d="m 232.111,114.517 c -0.357,1.881 -0.717,3.851 -0.984,5.306 h -2.305 c 0.133,-0.695 0.424,-1.881 1.117,-3.963 l -0.043,-0.022 c -1.031,2.194 -2.686,4.231 -4.926,4.231 -2.104,0 -2.775,-1.499 -2.35,-3.76 l 1.453,-7.611 h 2.33 l -1.344,7.051 c -0.314,1.59 -0.021,2.261 0.85,2.261 1.793,0 3.986,-3.983 4.477,-6.67 l 0.494,-2.642 h 2.35 l -1.119,5.819 z"
   id="path138"
   style="fill:#0054a4;display:inline" />
		<path
   d="m 238.244,120.002 c -1.389,0 -2.598,-0.135 -3.693,-0.382 l 3.088,-16.139 h 2.328 l -0.963,5.104 c -0.178,0.918 -0.471,1.903 -1.23,4.163 l 0.045,0.023 c 1.119,-2.463 2.797,-4.32 4.924,-4.32 1.656,0 2.551,1.074 2.551,3.447 -0.002,4.141 -2.171,8.104 -7.05,8.104 z m 3.625,-9.492 c -1.881,0 -4.029,4.097 -4.5,6.581 l -0.156,0.851 c 0.426,0.112 0.873,0.201 1.432,0.201 2.979,0 4.232,-3.245 4.232,-5.819 -0.001,-1.277 -0.381,-1.814 -1.008,-1.814 z"
   id="path140"
   style="fill:#0054a4;display:inline" />
		<path
   d="m 255.296,119.822 h -2.328 c 0.203,-0.918 0.582,-2.238 1.188,-4.074 l -0.045,-0.021 c -0.85,1.678 -2.461,4.342 -4.969,4.342 -1.633,0 -2.529,-1.074 -2.529,-3.447 0,-4.142 2.172,-8.104 7.051,-8.104 1.297,0 2.551,0.113 3.693,0.336 -1.098,5.663 -1.59,8.214 -2.061,10.968 z m -2.035,-9.446 c -2.977,0 -4.23,3.245 -4.23,5.819 0,1.275 0.379,1.813 1.008,1.813 1.879,0 4.004,-4.097 4.498,-6.626 l 0.156,-0.805 c -0.402,-0.112 -0.873,-0.201 -1.432,-0.201 z"
   id="path142"
   style="fill:#0054a4;display:inline" />
		<path
   d="m 265.837,110.555 h -2.844 l -1.029,5.461 c -0.289,1.547 -0.066,1.971 0.941,1.971 0.605,0 1.053,-0.066 1.479,-0.156 l -0.18,1.947 c -0.693,0.156 -1.521,0.246 -2.172,0.246 -2.328,0 -2.977,-1.097 -2.461,-3.693 l 1.096,-5.775 h -2.104 l 0.379,-1.857 h 2.082 l 0.672,-3.537 2.439,-0.514 -0.781,4.051 h 2.865 l -0.382,1.856 z"
   id="path144"
   style="fill:#0054a4;display:inline" />
		<path
   d="m 268.97,119.822 h -2.35 l 2.127,-11.125 h 2.35 l -2.127,11.125 z m 1.455,-12.781 c -0.85,0 -1.455,-0.672 -1.432,-1.433 0.021,-0.896 0.781,-1.567 1.633,-1.567 0.828,0 1.432,0.649 1.41,1.41 -0.021,0.918 -0.783,1.59 -1.611,1.59 z"
   id="path146"
   style="fill:#0054a4;display:inline" />
		<path
   d="m 276.646,120.045 c -2.932,0 -4.207,-1.454 -4.207,-3.983 0,-4.544 2.953,-7.588 6.559,-7.588 3.043,0 4.254,1.679 4.254,4.052 -0.001,4.565 -3.202,7.519 -6.606,7.519 z m 1.994,-9.535 c -2.283,0 -3.74,2.619 -3.74,5.17 0,1.457 0.582,2.307 2.082,2.307 2.105,0 3.783,-2.282 3.783,-5.193 0,-1.478 -0.648,-2.284 -2.125,-2.284 z"
   id="path148"
   style="fill:#0054a4;display:inline" />
		<path
   d="m 293.679,119.822 h -2.352 l 1.367,-7.051 c 0.312,-1.59 0.021,-2.262 -0.85,-2.262 -1.793,0 -3.986,3.984 -4.479,6.67 l -0.492,2.643 h -2.35 l 1.119,-5.82 c 0.357,-1.857 0.717,-3.806 0.961,-5.305 h 2.328 c -0.135,0.694 -0.424,1.881 -1.141,3.962 l 0.045,0.022 c 1.053,-2.193 2.707,-4.23 4.947,-4.23 2.104,0 2.775,1.498 2.35,3.76 l -1.453,7.611 z"
   id="path150"
   style="fill:#0054a4;display:inline" />
	</g>
	<g
   id="Project"
   style="display:inline">
		<path
   d="m 236.4,114.176 c -0.314,0 -0.762,-0.021 -1.145,-0.068 l -1.053,5.604 h -2.375 l 2.867,-15.126 c 1.166,-0.044 2.42,-0.09 3.832,-0.09 2.959,0 4.617,1.39 4.617,3.742 0.001,3.406 -3.093,5.938 -6.743,5.938 z m 1.701,-7.686 c -0.604,0 -0.986,0 -1.389,0.043 l -1.053,5.514 c 0.314,0.067 0.65,0.09 1.029,0.09 2.129,0 3.945,-1.547 3.945,-3.562 10e-4,-1.257 -0.671,-2.085 -2.532,-2.085 z"
   id="path153"
   style="fill:#0054a4" />
		<path
   d="m 250.558,110.657 c -1.859,-0.537 -3.943,3.183 -4.594,6.587 l -0.469,2.467 h -2.354 l 1.119,-5.826 c 0.291,-1.568 0.672,-3.653 0.965,-5.311 h 2.285 c -0.156,0.918 -0.449,2.016 -1.055,3.764 l 0.045,0.021 c 1.232,-2.554 2.51,-4.346 4.551,-4.01 l -0.493,2.308 z"
   id="path155"
   style="fill:#0054a4" />
		<path
   d="m 254.742,119.934 c -2.936,0 -4.213,-1.456 -4.213,-3.988 0,-4.549 2.957,-7.596 6.566,-7.596 3.047,0 4.258,1.682 4.258,4.056 0,4.571 -3.205,7.528 -6.611,7.528 z m 1.994,-9.545 c -2.285,0 -3.74,2.621 -3.74,5.176 0,1.457 0.58,2.309 2.082,2.309 2.105,0 3.787,-2.285 3.787,-5.199 0,-1.48 -0.651,-2.286 -2.129,-2.286 z"
   id="path157"
   style="fill:#0054a4" />
		<path
   d="m 264.623,120.898 c -0.561,2.867 -1.859,4.458 -4.818,4.458 -0.537,0 -1.053,-0.091 -1.479,-0.202 l 0.494,-2.061 c 0.402,0.157 0.873,0.246 1.23,0.246 1.369,0 1.883,-0.717 2.285,-2.802 l 2.309,-11.964 h 2.33 l -2.351,12.325 z m 1.634,-13.982 c -0.828,0 -1.434,-0.672 -1.412,-1.434 0.021,-0.897 0.785,-1.57 1.637,-1.57 0.828,0 1.436,0.65 1.41,1.412 -0.021,0.92 -0.783,1.592 -1.635,1.592 z"
   id="path159"
   style="fill:#0054a4" />
		<path
   d="m 270.582,114.959 c -0.045,0.293 -0.092,0.785 -0.092,1.121 0,1.523 0.562,1.926 2.242,1.926 1.055,0 2.195,-0.245 3.182,-0.648 v 1.882 c -1.143,0.425 -2.51,0.694 -3.965,0.694 -2.689,0 -3.855,-1.188 -3.855,-3.697 0,-4.459 2.6,-7.887 6.184,-7.887 2.557,0 3.43,1.299 3.43,2.621 -0.001,2.51 -2.533,3.832 -7.126,3.988 z m 3.427,-4.816 c -1.613,0 -2.689,1.455 -3.137,3.158 3.047,-0.111 4.48,-0.738 4.48,-2.016 0.001,-0.739 -0.515,-1.142 -1.343,-1.142 z"
   id="path161"
   style="fill:#0054a4" />
		<path
   d="m 286.802,110.77 c -0.537,-0.246 -1.166,-0.402 -1.906,-0.402 -2.598,0 -3.785,2.912 -3.785,5.242 0,1.143 0.402,2.196 2.15,2.196 0.809,0 1.66,-0.179 2.332,-0.493 l -0.18,2.105 c -0.785,0.269 -1.77,0.493 -2.824,0.493 -2.936,0 -3.988,-1.546 -3.988,-3.765 0,-4.256 2.443,-7.775 6.453,-7.775 0.875,0 1.59,0.113 2.309,0.314 l -0.561,2.085 z"
   id="path163"
   style="fill:#0054a4" />
		<path
   d="m 295.109,110.434 h -2.848 l -1.029,5.467 c -0.291,1.547 -0.068,1.973 0.939,1.973 0.607,0 1.055,-0.067 1.48,-0.157 l -0.178,1.948 c -0.695,0.158 -1.525,0.247 -2.176,0.247 -2.33,0 -2.979,-1.098 -2.463,-3.696 l 1.098,-5.781 h -2.107 l 0.381,-1.859 h 2.084 l 0.672,-3.541 2.443,-0.516 -0.783,4.057 h 2.867 l -0.38,1.858 z"
   id="path165"
   style="fill:#0054a4" />
	</g>
	<g
   id="Your_Open_Source_Compass">
		<path
   d="m 87.951,115.211 -0.869,4.748 h -1.704 l 0.87,-4.748 -2.346,-8.445 h 1.779 l 1.172,4.459 c 0.208,0.779 0.378,1.543 0.53,2.285 h 0.019 c 0.437,-0.801 0.983,-1.659 1.532,-2.541 l 2.648,-4.203 h 1.91 l -5.541,8.445"
   id="path168"
   style="fill:#a0ce67;display:inline" />
		<path
   d="m 94.741,120.137 c -2.366,0 -3.444,-1.23 -3.444,-3.459 0,-3.871 2.382,-6.607 5.448,-6.607 2.479,0 3.499,1.445 3.499,3.498 0,4.007 -2.669,6.568 -5.503,6.568 m 1.738,-8.58 c -2.061,0 -3.441,2.383 -3.441,4.828 0,1.445 0.569,2.248 1.986,2.248 1.834,0 3.443,-2.035 3.443,-4.869 0,-1.428 -0.625,-2.207 -1.988,-2.207"
   id="path170"
   style="fill:#a0ce67;display:inline" />
		<path
   d="m 108.849,119.959 h -1.663 c 0.132,-0.644 0.379,-1.758 1.038,-3.828 h -0.035 c -0.892,2.052 -2.365,4.025 -4.333,4.025 -1.739,0 -2.345,-1.27 -1.966,-3.303 l 1.21,-6.607 h 1.681 l -1.151,6.215 c -0.285,1.526 -0.018,2.191 0.813,2.191 1.739,0 3.688,-3.814 4.124,-6.217 l 0.396,-2.189 h 1.664 l -1.778,9.713"
   id="path172"
   style="fill:#a0ce67;display:inline" />
		<path
   d="m 117.947,111.771 c -1.738,-0.51 -3.593,3.303 -4.086,6.002 l -0.396,2.186 h -1.666 l 1.777,-9.713 h 1.629 c -0.153,0.84 -0.416,1.875 -0.966,3.578 l 0.037,0.02 c 1.061,-2.365 2.197,-4.085 4.011,-3.773 l -0.34,1.7"
   id="path174"
   style="fill:#a0ce67;display:inline" />
		<path
   d="m 127.311,120.157 c -3.084,0 -4.56,-1.798 -4.56,-4.81 0,-4.771 3.139,-8.775 7.301,-8.775 2.968,0 4.594,1.758 4.594,4.809 0,5.021 -3.29,8.776 -7.335,8.776 m 2.458,-12.004 c -3.024,0 -5.182,3.204 -5.182,6.942 0,2.129 1.019,3.457 2.968,3.457 2.894,0 5.259,-3.068 5.259,-6.979 0,-2.089 -0.982,-3.42 -3.045,-3.42"
   id="path176"
   style="fill:#a0ce67;display:inline" />
		<path
   d="m 138.562,120.1 c -0.472,0 -0.89,-0.042 -1.324,-0.119 l -0.871,4.809 h -1.662 l 2.665,-14.543 h 1.666 c -0.169,0.84 -0.416,1.799 -1.06,3.891 l 0.04,0.02 c 0.963,-2.288 2.44,-4.105 4.37,-4.105 1.358,0 2.098,0.9 2.098,2.951 -0.001,3.576 -1.8,7.096 -5.922,7.096 m 3.234,-8.543 c -1.777,0 -3.688,3.89 -4.124,6.176 l -0.15,0.744 c 0.397,0.135 0.965,0.232 1.363,0.232 2.763,0 3.876,-2.973 3.876,-5.374 0.001,-1.271 -0.376,-1.778 -0.965,-1.778"
   id="path178"
   style="fill:#a0ce67;display:inline" />
		<path
   d="m 147.585,115.678 c -0.057,0.297 -0.095,0.783 -0.095,1.135 0,1.506 0.511,1.896 2.024,1.896 0.888,0 1.835,-0.216 2.647,-0.565 v 1.409 c -0.908,0.369 -2.005,0.584 -3.234,0.584 -2.156,0 -3.158,-0.955 -3.158,-3.146 0,-3.774 2.024,-6.92 5.145,-6.92 2.005,0 2.761,1.056 2.761,2.209 0,2.091 -2.063,3.242 -6.09,3.398 m 3.14,-4.28 c -1.496,0 -2.497,1.352 -2.932,2.99 2.913,-0.117 4.2,-0.721 4.2,-1.896 0.001,-0.703 -0.511,-1.094 -1.268,-1.094"
   id="path180"
   style="fill:#a0ce67;display:inline" />
		<path
   d="m 162.223,119.959 h -1.662 l 1.152,-6.215 c 0.285,-1.524 0.02,-2.188 -0.83,-2.188 -1.741,0 -3.671,3.81 -4.105,6.217 l -0.397,2.186 h -1.663 l 0.945,-5.081 c 0.245,-1.386 0.586,-3.206 0.829,-4.632 h 1.648 c -0.116,0.646 -0.378,1.758 -1.041,3.832 h 0.039 c 0.886,-2.053 2.383,-4.027 4.348,-4.027 1.739,0 2.327,1.271 1.969,3.303 l -1.232,6.605"
   id="path182"
   style="fill:#a0ce67;display:inline" />
		<path
   d="m 176.9,108.371 c -0.623,-0.234 -1.303,-0.314 -1.777,-0.314 -1.891,0 -2.742,1.115 -2.742,2.17 0,2.385 3.896,2.465 3.896,5.592 0,2.442 -2.082,4.339 -5.048,4.339 -0.682,0 -1.478,-0.079 -2.102,-0.274 l 0.322,-1.721 c 0.529,0.235 1.285,0.412 1.929,0.412 1.967,0 3.083,-0.998 3.083,-2.463 0,-2.287 -3.877,-2.307 -3.877,-5.474 0,-2.169 1.645,-4.065 4.709,-4.065 0.644,0 1.211,0.039 1.93,0.193 l -0.323,1.605"
   id="path184"
   style="fill:#a0ce67;display:inline" />
		<path
   d="m 181.404,120.137 c -2.364,0 -3.445,-1.23 -3.445,-3.459 0,-3.871 2.386,-6.607 5.45,-6.607 2.479,0 3.499,1.445 3.499,3.498 0,4.007 -2.667,6.568 -5.504,6.568 m 1.74,-8.58 c -2.062,0 -3.443,2.383 -3.443,4.828 0,1.445 0.566,2.248 1.984,2.248 1.835,0 3.442,-2.035 3.442,-4.869 0,-1.428 -0.622,-2.207 -1.983,-2.207"
   id="path186"
   style="fill:#a0ce67;display:inline" />
		<path
   d="m 195.512,119.959 h -1.664 c 0.134,-0.644 0.379,-1.758 1.04,-3.828 h -0.038 c -0.889,2.052 -2.365,4.025 -4.329,4.025 -1.744,0 -2.349,-1.27 -1.969,-3.303 l 1.209,-6.607 h 1.684 l -1.153,6.215 c -0.283,1.526 -0.02,2.191 0.816,2.191 1.737,0 3.688,-3.814 4.121,-6.217 l 0.396,-2.189 h 1.666 l -1.779,9.713"
   id="path188"
   style="fill:#a0ce67;display:inline" />
		<path
   d="m 204.591,111.771 c -1.739,-0.51 -3.593,3.303 -4.088,6.002 l -0.393,2.186 h -1.667 l 1.778,-9.713 h 1.627 c -0.151,0.84 -0.417,1.875 -0.965,3.578 l 0.037,0.02 c 1.059,-2.365 2.195,-4.085 4.011,-3.773 l -0.34,1.7"
   id="path190"
   style="fill:#a0ce67;display:inline" />
		<path
   d="m 211.815,111.907 c -0.511,-0.235 -1.057,-0.372 -1.722,-0.372 -2.382,0 -3.497,2.776 -3.497,4.986 0,1.014 0.319,2.053 1.968,2.053 0.735,0 1.529,-0.177 2.118,-0.469 l -0.115,1.543 c -0.66,0.254 -1.531,0.468 -2.479,0.468 -2.438,0 -3.27,-1.366 -3.27,-3.204 0,-3.714 2.024,-6.822 5.389,-6.822 0.777,0 1.399,0.117 1.987,0.291 l -0.379,1.526"
   id="path192"
   style="fill:#a0ce67;display:inline" />
		<path
   d="m 214.482,115.678 c -0.057,0.297 -0.094,0.783 -0.094,1.135 0,1.506 0.51,1.896 2.026,1.896 0.884,0 1.832,-0.216 2.646,-0.565 v 1.409 c -0.907,0.369 -2.005,0.584 -3.234,0.584 -2.155,0 -3.157,-0.955 -3.157,-3.146 0,-3.774 2.022,-6.92 5.142,-6.92 2.006,0 2.763,1.056 2.763,2.209 -0.001,2.091 -2.063,3.242 -6.092,3.398 m 3.14,-4.28 c -1.494,0 -2.496,1.352 -2.931,2.99 2.91,-0.117 4.198,-0.721 4.198,-1.896 0,-0.703 -0.511,-1.094 -1.267,-1.094"
   id="path194"
   style="fill:#a0ce67;display:inline" />
		<path
   d="m 235.836,108.682 c -0.889,-0.332 -1.778,-0.469 -2.649,-0.469 -3.705,0 -5.199,3.753 -5.199,7.076 0,1.896 0.757,3.227 3.215,3.227 1.059,0 2.098,-0.235 2.969,-0.646 l -0.076,1.623 c -1.019,0.391 -2.212,0.624 -3.402,0.624 -3.65,0 -4.597,-2.208 -4.597,-4.533 0,-4.614 2.514,-8.935 7.337,-8.935 1.078,0 1.986,0.158 2.818,0.394 l -0.416,1.639"
   id="path196"
   style="fill:#a0ce67;display:inline" />
		<path
   d="m 239.489,120.137 c -2.366,0 -3.443,-1.23 -3.443,-3.459 0,-3.871 2.382,-6.607 5.447,-6.607 2.477,0 3.498,1.445 3.498,3.498 0,4.007 -2.664,6.568 -5.502,6.568 m 1.737,-8.58 c -2.061,0 -3.439,2.383 -3.439,4.828 0,1.445 0.564,2.248 1.982,2.248 1.837,0 3.442,-2.035 3.442,-4.869 0,-1.428 -0.621,-2.207 -1.985,-2.207"
   id="path198"
   style="fill:#a0ce67;display:inline" />
		<path
   d="m 259.309,119.959 h -1.684 l 1.154,-6.215 c 0.284,-1.524 0.019,-2.209 -0.757,-2.209 -1.608,0 -3.574,3.599 -4.066,6.238 l -0.396,2.186 h -1.665 l 1.153,-6.215 c 0.284,-1.524 0.037,-2.209 -0.776,-2.209 -1.588,0 -3.555,3.599 -4.047,6.238 l -0.397,2.186 h -1.662 l 0.943,-5.081 c 0.266,-1.446 0.588,-3.206 0.831,-4.632 h 1.647 c -0.111,0.646 -0.379,1.779 -1.041,3.832 h 0.039 c 0.868,-2.033 2.344,-4.027 4.274,-4.027 1.21,0 1.892,0.684 1.892,1.895 0,0.606 -0.152,1.174 -0.454,2.15 l 0.037,0.02 c 0.87,-2.09 2.346,-4.064 4.275,-4.064 1.702,0 2.288,1.271 1.908,3.303 l -1.208,6.604"
   id="path200"
   style="fill:#a0ce67;display:inline" />
		<path
   d="m 265.117,120.1 c -0.473,0 -0.892,-0.042 -1.324,-0.119 l -0.872,4.809 h -1.663 l 2.668,-14.543 h 1.661 c -0.167,0.84 -0.416,1.799 -1.057,3.891 l 0.035,0.02 c 0.968,-2.288 2.441,-4.105 4.372,-4.105 1.36,0 2.097,0.9 2.097,2.951 0,3.576 -1.794,7.096 -5.917,7.096 m 3.234,-8.543 c -1.779,0 -3.689,3.89 -4.126,6.176 l -0.151,0.744 c 0.397,0.135 0.967,0.232 1.362,0.232 2.764,0 3.88,-2.973 3.88,-5.374 0,-1.271 -0.379,-1.778 -0.965,-1.778"
   id="path202"
   style="fill:#a0ce67;display:inline" />
		<path
   d="m 279.376,119.959 h -1.683 c 0.171,-0.837 0.529,-2.129 1.098,-3.947 l -0.039,-0.017 c -0.681,1.503 -2.1,4.162 -4.386,4.162 -1.362,0 -2.102,-0.9 -2.102,-2.952 0,-3.579 1.796,-7.115 5.901,-7.115 1.077,0 2.079,0.117 2.952,0.295 -1.002,5.433 -1.344,7.25 -1.741,9.574 m -1.495,-8.48 c -2.798,0 -3.895,2.988 -3.895,5.393 0,1.272 0.38,1.781 0.965,1.781 1.776,0 3.706,-3.891 4.141,-6.217 l 0.136,-0.779 c -0.381,-0.1 -0.815,-0.178 -1.347,-0.178"
   id="path204"
   style="fill:#a0ce67;display:inline" />
		<path
   d="m 287.983,111.635 c -0.456,-0.156 -0.945,-0.236 -1.416,-0.236 -1.232,0 -1.876,0.605 -1.876,1.428 0,1.545 2.855,1.953 2.855,4.145 0,1.621 -1.379,3.166 -4.047,3.166 -0.624,0 -1.136,-0.037 -1.607,-0.138 l 0.302,-1.562 c 0.492,0.154 1.001,0.254 1.532,0.254 1.229,0 2.061,-0.509 2.061,-1.525 0,-1.543 -2.837,-1.8 -2.837,-4.145 0,-1.664 1.287,-2.951 3.727,-2.951 0.663,0 1.137,0.059 1.61,0.137 l -0.304,1.427"
   id="path206"
   style="fill:#a0ce67;display:inline" />
		<path
   d="m 295.095,111.635 c -0.456,-0.156 -0.945,-0.236 -1.421,-0.236 -1.229,0 -1.872,0.605 -1.872,1.428 0,1.545 2.855,1.953 2.855,4.145 0,1.621 -1.378,3.166 -4.045,3.166 -0.624,0 -1.138,-0.037 -1.61,-0.138 l 0.305,-1.562 c 0.49,0.154 1.002,0.254 1.529,0.254 1.229,0 2.064,-0.509 2.064,-1.525 0,-1.543 -2.84,-1.8 -2.84,-4.145 0,-1.664 1.288,-2.951 3.727,-2.951 0.663,0 1.135,0.059 1.607,0.137 l -0.299,1.427"
   id="path208"
   style="fill:#a0ce67;display:inline" />
	</g>
</g>
<g
   transform="translate(-2.3790046,-3.407)"
   id="OSGeo"
   style="display:none">
	<path
   d="m 107.322,56.194 c -3.566,4.801 -5.377,10.846 -5.377,17.968 0,7.564 1.772,13.854 5.276,18.699 3.521,4.875 8.465,7.348 14.698,7.348 6.825,0 12.143,-2.34 15.812,-6.949 3.649,-4.596 5.503,-11.021 5.503,-19.098 0,-7.885 -1.849,-14.122 -5.492,-18.546 -3.653,-4.443 -8.977,-6.696 -15.823,-6.696 -6.098,0 -11.005,2.45 -14.597,7.274 m 5.475,31.931 c -2.177,-3.713 -3.281,-8.412 -3.281,-13.963 0,-5.77 1.076,-10.387 3.192,-13.718 2.096,-3.295 5.197,-4.966 9.214,-4.966 9.245,0 13.737,6.111 13.737,18.685 0,6.166 -1.191,11.018 -3.538,14.416 -2.325,3.365 -5.758,5.07 -10.199,5.07 -3.904,-0.001 -6.972,-1.858 -9.125,-5.524"
   id="path211"
   style="fill:#49a942;display:inline" />
	<path
   d="m 151.834,52.611 c -2.643,2.452 -3.981,5.586 -3.981,9.312 0,3.047 0.684,5.702 2.034,7.878 1.349,2.18 3.746,4.084 7.132,5.66 l 3.946,1.847 c 3.482,1.642 5.682,3.168 6.532,4.536 0.85,1.369 1.28,2.873 1.28,4.467 0,2.123 -0.768,3.895 -2.286,5.262 -1.521,1.376 -3.571,2.076 -6.103,2.076 -1.434,0 -3.084,-0.303 -4.91,-0.909 -1.825,-0.6 -3.366,-1.358 -4.583,-2.257 l -0.286,-0.211 -2.647,6.689 0.18,0.119 c 3.111,2.076 6.912,3.129 11.299,3.129 4.999,0 9.047,-1.319 12.041,-3.922 3.006,-2.609 4.532,-5.833 4.532,-9.584 0,-3.428 -0.695,-6.295 -2.069,-8.53 -1.375,-2.234 -3.789,-4.179 -7.174,-5.778 l -4.022,-1.91 c -2.562,-1.238 -4.279,-2.205 -5.093,-2.882 -0.803,-0.661 -1.439,-1.497 -1.888,-2.481 -0.452,-0.991 -0.681,-2.104 -0.681,-3.311 0,-1.949 0.635,-3.567 1.886,-4.805 1.25,-1.24 3.003,-1.867 5.205,-1.867 1.528,0 3.22,0.303 5.023,0.895 1.801,0.596 3.155,1.218 4.029,1.849 l 0.295,0.22 2.159,-6.354 -0.141,-0.119 c -2.168,-1.795 -6.043,-2.708 -11.522,-2.708 -4.122,-0.002 -7.552,1.24 -10.187,3.689"
   id="path213"
   style="fill:#49a942;display:inline" />
	<path
   d="m 187.21,56.094 c -4.314,4.751 -6.504,11.029 -6.504,18.652 0,7.646 1.996,13.864 5.934,18.482 3.949,4.63 9.403,6.98 16.213,6.98 3.016,0 6.171,-0.477 9.371,-1.404 3.212,-0.932 5.754,-2.188 7.56,-3.723 l 0.098,-0.079 v -21.77 h -14.013 v 6.219 h 6.778 v 11.115 c -2.135,2.039 -4.954,3.082 -8.389,3.082 -4.91,0 -8.837,-1.713 -11.68,-5.099 -2.853,-3.396 -4.296,-7.95 -4.296,-13.532 0,-5.875 1.472,-10.656 4.379,-14.208 2.895,-3.539 6.901,-5.332 11.916,-5.332 3.152,0 6.425,1.243 9.726,3.688 l 0.26,0.192 3.013,-5.995 -0.16,-0.138 c -3.247,-2.854 -7.5,-4.305 -12.645,-4.305 -7.33,0.001 -13.24,2.417 -17.561,7.175"
   id="path215"
   style="fill:#49a942;display:inline" />
	<path
   d="m 231.083,67.17 c -3.629,3.611 -5.471,8.46 -5.471,14.418 0,5.744 1.796,10.378 5.334,13.787 3.184,3.092 7.104,4.661 11.661,4.661 3.143,0 6.028,-0.481 8.593,-1.435 2.052,-0.729 3.606,-1.61 4.612,-2.627 l 0.146,-0.148 -2.948,-5.039 -0.243,0.22 c -2.367,2.09 -5.366,3.151 -8.918,3.151 -3.104,0 -5.671,-0.967 -7.638,-2.871 -2.18,-2.141 -3.293,-5.246 -3.343,-9.209 h 25.761 l 0.054,-0.199 c 0.34,-1.203 0.512,-2.535 0.512,-3.959 0,-4.631 -1.443,-8.404 -4.299,-11.213 -2.94,-2.92 -7.048,-4.402 -12.207,-4.402 -4.451,0 -8.352,1.639 -11.606,4.865 m 4.96,3.685 c 1.854,-1.771 4.188,-2.67 6.932,-2.67 2.938,0 5.293,0.914 6.991,2.722 1.487,1.595 2.227,3.617 2.286,5.968 h -19.155 c 0.292,-2.367 1.248,-4.41 2.946,-6.02"
   id="path217"
   style="fill:#49a942;display:inline" />
	<path
   d="m 268.197,67.503 c -3.011,3.439 -4.538,8.007 -4.538,13.585 0,5.75 1.463,10.396 4.352,13.801 2.896,3.415 6.986,5.147 12.161,5.147 5.06,0 9.113,-1.714 12.058,-5.097 2.933,-3.373 4.418,-8.031 4.418,-13.852 0,-5.84 -1.452,-10.479 -4.318,-13.785 -2.877,-3.316 -6.965,-4.998 -12.157,-4.998 -4.927,10e-4 -8.959,1.75 -11.976,5.199 m 2.698,13.585 c 0,-4.08 0.856,-7.32 2.542,-9.63 1.67,-2.282 3.934,-3.438 6.734,-3.438 6.217,0 9.242,4.271 9.242,13.068 0,4.103 -0.834,7.377 -2.481,9.736 -1.623,2.324 -3.897,3.5 -6.761,3.5 -6.243,0 -9.276,-4.328 -9.276,-13.236"
   id="path219"
   style="fill:#49a942;display:inline" />
</g>
<g
   transform="translate(-2.3790046,-3.407)"
   id="Compass">
	<path
   d="M 54.232,117.368 C 28.032,116.453 7.532,94.47 8.447,68.269 9.361,42.065 31.345,21.569 57.546,22.484 c 18.112,0.633 33.497,11.335 40.969,26.537 1.15,0.036 2.302,0.039 3.461,-0.175 C 94.225,31.979 77.475,20 57.657,19.308 29.667,18.33 6.187,40.227 5.209,68.219 c -0.976,27.986 20.918,51.468 48.909,52.446 7.593,0.264 14.851,-1.166 21.421,-3.934 -0.317,-0.983 -0.514,-2.108 -0.841,-3.215 -6.259,2.707 -13.198,4.105 -20.466,3.852 z"
   id="path222"
   style="fill:#49a942;fill-rule:evenodd" />
	<g
   id="g224">
		<circle
   cx="55.669998"
   cy="70.192001"
   r="31.707001"
   id="circle226"
   style="fill:#a0ce67" />
	</g>
	<polygon
   points="49.515,86.588 78.884,121.407 72.411,75.859 107.593,46.548 61.494,53.061 26.327,4.407 38.873,63.876 3.379,93.238 "
   id="polygon228"
   style="fill:#ffffff;stroke:#a0ce67;stroke-width:2;stroke-miterlimit:6" />
	<g
   id="g230">
		<polygon
   points="59.123,73.172 65.45,91.554 55.707,74.987 50.335,84.403 51.976,73.643 34.388,79.515 50.561,70.082 40.388,64.431 52.106,66.806 46.326,49.022 55.255,65.431 60.669,55.451 58.606,66.663 76.371,60.624 60.143,69.772 69.983,74.904 "
   id="polygon232"
   style="fill:#49a942;fill-rule:evenodd" />
	</g>
	<path
   d="M 47.934,90.854"
   id="path234"
   style="fill:none" />
	<path
   d="M 60.669,55.451"
   id="path236"
   style="fill:none" />
</g>
</svg>